stateDiagram-v2
direction LR
[*] --> pqx41xg
state "array := # &quot;[&quot; &quot;]&quot;\narray := # &quot;[&quot; exps &quot;]&quot;\nconst_stmt := # const identifier &quot;=&quot; exp_stmt\nexp := # &quot;!&quot; exp\nexp := # &quot;(&quot; &quot;{&quot; identifier &quot;}&quot; &quot;)&quot; &quot;=>&quot; &quot;{&quot; &quot;}&quot;\nexp := # &quot;(&quot; &quot;{&quot; identifier &quot;}&quot; &quot;)&quot; &quot;=>&quot; &quot;{&quot; __0 &quot;}&quot;\nexp := # &quot;(&quot; exp &quot;)&quot;\nexp := # &quot;...&quot; exp\nexp := # array\nexp := # exp &quot;!=&quot; exp\nexp := # exp &quot;&&&quot; exp\nexp := # exp &quot;(&quot; &quot;)&quot;\nexp := # exp &quot;(&quot; exps &quot;)&quot;\nexp := # exp &quot;.&quot; identifier\nexp := # exp &quot;?&quot; &quot;.&quot; identifier\nexp := # exp &quot;[&quot; exp &quot;]&quot;\nexp := # exp as type_name\nexp := # false\nexp := # identifier\nexp := # new identifier\nexp := # null\nexp := # object\nexp := # regex\nexp := # string\nexp := # true\nexp := # undefined\nexp_stmt := # exp &quot;;&quot;\nexport_stmt := # export const_stmt\nimport_stmt := # import &quot;*&quot; as identifier from string &quot;;&quot;\nimport_stmt := # import &quot;{&quot; identifier &quot;}&quot; from string &quot;;&quot;\nimport_stmt := # import &quot;{&quot; identifier __2 &quot;}&quot; from string &quot;;&quot;\nobject := # &quot;{&quot; &quot;}&quot;\nobject := # &quot;{&quot; object_entry &quot;}&quot;\nobject := # &quot;{&quot; object_entry __1 &quot;}&quot;" as pqx41xg
pqx41xg --> npreqca: #105;#100;#101;#110;#116;#105;#102;#105;#101;#114;
pqx41xg --> n414vr7: #34;#91;#34;
pqx41xg --> pia8n9b: #99;#111;#110;#115;#116;
pqx41xg --> ptu34g2: #101;#120;#112;
pqx41xg --> nxbgw36: #115;#116;#114;#105;#110;#103;
pqx41xg --> nduxh80: #114;#101;#103;#101;#120;
pqx41xg --> p9vc8y3: #116;#114;#117;#101;
pqx41xg --> plagb58: #102;#97;#108;#115;#101;
pqx41xg --> p9itirg: #111;#98;#106;#101;#99;#116;
pqx41xg --> pr2c7c2: #97;#114;#114;#97;#121;
pqx41xg --> p72kao4: #110;#117;#108;#108;
pqx41xg --> n28xhnr: #117;#110;#100;#101;#102;#105;#110;#101;#100;
pqx41xg --> n62dptj: #34;#40;#34;
pqx41xg --> p7di4vj: #34;#123;#34;
pqx41xg --> nfi3tvk: #110;#101;#119;
pqx41xg --> p4p6aod: #34;#33;#34;
pqx41xg --> nrnrome: #34;#46;#46;#46;#34;
pqx41xg --> n28uneg: #101;#120;#112;#111;#114;#116;
pqx41xg --> p2s4qwq: #105;#109;#112;#111;#114;#116;
state "exp := identifier #" as npreqca
state "array := &quot;[&quot; # &quot;]&quot;\narray := &quot;[&quot; # exps &quot;]&quot;\narray := # &quot;[&quot; &quot;]&quot;\narray := # &quot;[&quot; exps &quot;]&quot;\nexp := # &quot;!&quot; exp\nexp := # &quot;(&quot; &quot;{&quot; identifier &quot;}&quot; &quot;)&quot; &quot;=>&quot; &quot;{&quot; &quot;}&quot;\nexp := # &quot;(&quot; &quot;{&quot; identifier &quot;}&quot; &quot;)&quot; &quot;=>&quot; &quot;{&quot; __0 &quot;}&quot;\nexp := # &quot;(&quot; exp &quot;)&quot;\nexp := # &quot;...&quot; exp\nexp := # array\nexp := # exp &quot;!=&quot; exp\nexp := # exp &quot;&&&quot; exp\nexp := # exp &quot;(&quot; &quot;)&quot;\nexp := # exp &quot;(&quot; exps &quot;)&quot;\nexp := # exp &quot;.&quot; identifier\nexp := # exp &quot;?&quot; &quot;.&quot; identifier\nexp := # exp &quot;[&quot; exp &quot;]&quot;\nexp := # exp as type_name\nexp := # false\nexp := # identifier\nexp := # new identifier\nexp := # null\nexp := # object\nexp := # regex\nexp := # string\nexp := # true\nexp := # undefined\nexps := # exp\nexps := # exp &quot;,&quot;\nexps := # exp &quot;,&quot; exps\nobject := # &quot;{&quot; &quot;}&quot;\nobject := # &quot;{&quot; object_entry &quot;}&quot;\nobject := # &quot;{&quot; object_entry __1 &quot;}&quot;" as n414vr7
n414vr7 --> npreqca: #105;#100;#101;#110;#116;#105;#102;#105;#101;#114;
n414vr7 --> n414vr7: #34;#91;#34;
n414vr7 --> p6ippfh: #34;#93;#34;
n414vr7 --> nl8kr71: #101;#120;#112;
n414vr7 --> pb3oft9: #101;#120;#112;#115;
n414vr7 --> nxbgw36: #115;#116;#114;#105;#110;#103;
n414vr7 --> nduxh80: #114;#101;#103;#101;#120;
n414vr7 --> p9vc8y3: #116;#114;#117;#101;
n414vr7 --> plagb58: #102;#97;#108;#115;#101;
n414vr7 --> p9itirg: #111;#98;#106;#101;#99;#116;
n414vr7 --> pr2c7c2: #97;#114;#114;#97;#121;
n414vr7 --> p72kao4: #110;#117;#108;#108;
n414vr7 --> n28xhnr: #117;#110;#100;#101;#102;#105;#110;#101;#100;
n414vr7 --> n62dptj: #34;#40;#34;
n414vr7 --> p7di4vj: #34;#123;#34;
n414vr7 --> nfi3tvk: #110;#101;#119;
n414vr7 --> p4p6aod: #34;#33;#34;
n414vr7 --> nrnrome: #34;#46;#46;#46;#34;
state "const_stmt := const # identifier &quot;=&quot; exp_stmt" as pia8n9b
pia8n9b --> p712di1: #105;#100;#101;#110;#116;#105;#102;#105;#101;#114;
state "exp := exp # &quot;!=&quot; exp\nexp := exp # &quot;&&&quot; exp\nexp := exp # &quot;(&quot; &quot;)&quot;\nexp := exp # &quot;(&quot; exps &quot;)&quot;\nexp := exp # &quot;.&quot; identifier\nexp := exp # &quot;?&quot; &quot;.&quot; identifier\nexp := exp # &quot;[&quot; exp &quot;]&quot;\nexp := exp # as type_name\nexp_stmt := exp # &quot;;&quot;" as ptu34g2
ptu34g2 --> phuui5p: #34;#91;#34;
ptu34g2 --> p2ijmdp: #97;#115;
ptu34g2 --> p40vcnx: #34;#40;#34;
ptu34g2 --> p56cmmg: #34;#63;#34;
ptu34g2 --> pnd8ckt: #34;#46;#34;
ptu34g2 --> ptuemcj: #34;#33;#61;#34;
ptu34g2 --> p8v4w4f: #34;#38;#38;#34;
ptu34g2 --> nov9r0e: #34;#59;#34;
state "exp := string #" as nxbgw36
state "exp := regex #" as nduxh80
state "exp := true #" as p9vc8y3
state "exp := false #" as plagb58
state "exp := object #" as p9itirg
state "exp := array #" as pr2c7c2
state "exp := null #" as p72kao4
state "exp := undefined #" as n28xhnr
state "array := # &quot;[&quot; &quot;]&quot;\narray := # &quot;[&quot; exps &quot;]&quot;\nexp := &quot;(&quot; # &quot;{&quot; identifier &quot;}&quot; &quot;)&quot; &quot;=>&quot; &quot;{&quot; &quot;}&quot;\nexp := &quot;(&quot; # &quot;{&quot; identifier &quot;}&quot; &quot;)&quot; &quot;=>&quot; &quot;{&quot; __0 &quot;}&quot;\nexp := &quot;(&quot; # exp &quot;)&quot;\nexp := # &quot;!&quot; exp\nexp := # &quot;(&quot; &quot;{&quot; identifier &quot;}&quot; &quot;)&quot; &quot;=>&quot; &quot;{&quot; &quot;}&quot;\nexp := # &quot;(&quot; &quot;{&quot; identifier &quot;}&quot; &quot;)&quot; &quot;=>&quot; &quot;{&quot; __0 &quot;}&quot;\nexp := # &quot;(&quot; exp &quot;)&quot;\nexp := # &quot;...&quot; exp\nexp := # array\nexp := # exp &quot;!=&quot; exp\nexp := # exp &quot;&&&quot; exp\nexp := # exp &quot;(&quot; &quot;)&quot;\nexp := # exp &quot;(&quot; exps &quot;)&quot;\nexp := # exp &quot;.&quot; identifier\nexp := # exp &quot;?&quot; &quot;.&quot; identifier\nexp := # exp &quot;[&quot; exp &quot;]&quot;\nexp := # exp as type_name\nexp := # false\nexp := # identifier\nexp := # new identifier\nexp := # null\nexp := # object\nexp := # regex\nexp := # string\nexp := # true\nexp := # undefined\nobject := # &quot;{&quot; &quot;}&quot;\nobject := # &quot;{&quot; object_entry &quot;}&quot;\nobject := # &quot;{&quot; object_entry __1 &quot;}&quot;" as n62dptj
n62dptj --> npreqca: #105;#100;#101;#110;#116;#105;#102;#105;#101;#114;
n62dptj --> n414vr7: #34;#91;#34;
n62dptj --> nb2vnib: #101;#120;#112;
n62dptj --> nxbgw36: #115;#116;#114;#105;#110;#103;
n62dptj --> nduxh80: #114;#101;#103;#101;#120;
n62dptj --> p9vc8y3: #116;#114;#117;#101;
n62dptj --> plagb58: #102;#97;#108;#115;#101;
n62dptj --> p9itirg: #111;#98;#106;#101;#99;#116;
n62dptj --> pr2c7c2: #97;#114;#114;#97;#121;
n62dptj --> p72kao4: #110;#117;#108;#108;
n62dptj --> n28xhnr: #117;#110;#100;#101;#102;#105;#110;#101;#100;
n62dptj --> n62dptj: #34;#40;#34;
n62dptj --> nflr6e9: #34;#123;#34;
n62dptj --> nfi3tvk: #110;#101;#119;
n62dptj --> p4p6aod: #34;#33;#34;
n62dptj --> nrnrome: #34;#46;#46;#46;#34;
state "object := &quot;{&quot; # &quot;}&quot;\nobject := &quot;{&quot; # object_entry &quot;}&quot;\nobject := &quot;{&quot; # object_entry __1 &quot;}&quot;\nobject_entry := # identifier\nobject_entry := # identifier &quot;:&quot; exp" as p7di4vj
p7di4vj --> pherssx: #105;#100;#101;#110;#116;#105;#102;#105;#101;#114;
p7di4vj --> pnt6gt3: #34;#125;#34;
p7di4vj --> n81mpq6: #111;#98;#106;#101;#99;#116;#95;#101;#110;#116;#114;#121;
state "exp := new # identifier" as nfi3tvk
nfi3tvk --> pqaqlk6: #105;#100;#101;#110;#116;#105;#102;#105;#101;#114;
state "array := # &quot;[&quot; &quot;]&quot;\narray := # &quot;[&quot; exps &quot;]&quot;\nexp := &quot;!&quot; # exp\nexp := # &quot;!&quot; exp\nexp := # &quot;(&quot; &quot;{&quot; identifier &quot;}&quot; &quot;)&quot; &quot;=>&quot; &quot;{&quot; &quot;}&quot;\nexp := # &quot;(&quot; &quot;{&quot; identifier &quot;}&quot; &quot;)&quot; &quot;=>&quot; &quot;{&quot; __0 &quot;}&quot;\nexp := # &quot;(&quot; exp &quot;)&quot;\nexp := # &quot;...&quot; exp\nexp := # array\nexp := # exp &quot;!=&quot; exp\nexp := # exp &quot;&&&quot; exp\nexp := # exp &quot;(&quot; &quot;)&quot;\nexp := # exp &quot;(&quot; exps &quot;)&quot;\nexp := # exp &quot;.&quot; identifier\nexp := # exp &quot;?&quot; &quot;.&quot; identifier\nexp := # exp &quot;[&quot; exp &quot;]&quot;\nexp := # exp as type_name\nexp := # false\nexp := # identifier\nexp := # new identifier\nexp := # null\nexp := # object\nexp := # regex\nexp := # string\nexp := # true\nexp := # undefined\nobject := # &quot;{&quot; &quot;}&quot;\nobject := # &quot;{&quot; object_entry &quot;}&quot;\nobject := # &quot;{&quot; object_entry __1 &quot;}&quot;" as p4p6aod
p4p6aod --> npreqca: #105;#100;#101;#110;#116;#105;#102;#105;#101;#114;
p4p6aod --> n414vr7: #34;#91;#34;
p4p6aod --> pil9l6x: #101;#120;#112;
p4p6aod --> nxbgw36: #115;#116;#114;#105;#110;#103;
p4p6aod --> nduxh80: #114;#101;#103;#101;#120;
p4p6aod --> p9vc8y3: #116;#114;#117;#101;
p4p6aod --> plagb58: #102;#97;#108;#115;#101;
p4p6aod --> p9itirg: #111;#98;#106;#101;#99;#116;
p4p6aod --> pr2c7c2: #97;#114;#114;#97;#121;
p4p6aod --> p72kao4: #110;#117;#108;#108;
p4p6aod --> n28xhnr: #117;#110;#100;#101;#102;#105;#110;#101;#100;
p4p6aod --> n62dptj: #34;#40;#34;
p4p6aod --> p7di4vj: #34;#123;#34;
p4p6aod --> nfi3tvk: #110;#101;#119;
p4p6aod --> p4p6aod: #34;#33;#34;
p4p6aod --> nrnrome: #34;#46;#46;#46;#34;
state "array := # &quot;[&quot; &quot;]&quot;\narray := # &quot;[&quot; exps &quot;]&quot;\nexp := &quot;...&quot; # exp\nexp := # &quot;!&quot; exp\nexp := # &quot;(&quot; &quot;{&quot; identifier &quot;}&quot; &quot;)&quot; &quot;=>&quot; &quot;{&quot; &quot;}&quot;\nexp := # &quot;(&quot; &quot;{&quot; identifier &quot;}&quot; &quot;)&quot; &quot;=>&quot; &quot;{&quot; __0 &quot;}&quot;\nexp := # &quot;(&quot; exp &quot;)&quot;\nexp := # &quot;...&quot; exp\nexp := # array\nexp := # exp &quot;!=&quot; exp\nexp := # exp &quot;&&&quot; exp\nexp := # exp &quot;(&quot; &quot;)&quot;\nexp := # exp &quot;(&quot; exps &quot;)&quot;\nexp := # exp &quot;.&quot; identifier\nexp := # exp &quot;?&quot; &quot;.&quot; identifier\nexp := # exp &quot;[&quot; exp &quot;]&quot;\nexp := # exp as type_name\nexp := # false\nexp := # identifier\nexp := # new identifier\nexp := # null\nexp := # object\nexp := # regex\nexp := # string\nexp := # true\nexp := # undefined\nobject := # &quot;{&quot; &quot;}&quot;\nobject := # &quot;{&quot; object_entry &quot;}&quot;\nobject := # &quot;{&quot; object_entry __1 &quot;}&quot;" as nrnrome
nrnrome --> npreqca: #105;#100;#101;#110;#116;#105;#102;#105;#101;#114;
nrnrome --> n414vr7: #34;#91;#34;
nrnrome --> nrdcy04: #101;#120;#112;
nrnrome --> nxbgw36: #115;#116;#114;#105;#110;#103;
nrnrome --> nduxh80: #114;#101;#103;#101;#120;
nrnrome --> p9vc8y3: #116;#114;#117;#101;
nrnrome --> plagb58: #102;#97;#108;#115;#101;
nrnrome --> p9itirg: #111;#98;#106;#101;#99;#116;
nrnrome --> pr2c7c2: #97;#114;#114;#97;#121;
nrnrome --> p72kao4: #110;#117;#108;#108;
nrnrome --> n28xhnr: #117;#110;#100;#101;#102;#105;#110;#101;#100;
nrnrome --> n62dptj: #34;#40;#34;
nrnrome --> p7di4vj: #34;#123;#34;
nrnrome --> nfi3tvk: #110;#101;#119;
nrnrome --> p4p6aod: #34;#33;#34;
nrnrome --> nrnrome: #34;#46;#46;#46;#34;
state "const_stmt := # const identifier &quot;=&quot; exp_stmt\nexport_stmt := export # const_stmt" as n28uneg
n28uneg --> pia8n9b: #99;#111;#110;#115;#116;
n28uneg --> p44wlc3: #99;#111;#110;#115;#116;#95;#115;#116;#109;#116;
state "import_stmt := import # &quot;*&quot; as identifier from string &quot;;&quot;\nimport_stmt := import # &quot;{&quot; identifier &quot;}&quot; from string &quot;;&quot;\nimport_stmt := import # &quot;{&quot; identifier __2 &quot;}&quot; from string &quot;;&quot;" as p2s4qwq
p2s4qwq --> nm0fwzo: #34;#123;#34;
p2s4qwq --> poj9djc: #34;#42;#34;
state "array := &quot;[&quot; &quot;]&quot; #" as p6ippfh
state "exp := exp # &quot;!=&quot; exp\nexp := exp # &quot;&&&quot; exp\nexp := exp # &quot;(&quot; &quot;)&quot;\nexp := exp # &quot;(&quot; exps &quot;)&quot;\nexp := exp # &quot;.&quot; identifier\nexp := exp # &quot;?&quot; &quot;.&quot; identifier\nexp := exp # &quot;[&quot; exp &quot;]&quot;\nexp := exp # as type_name\nexps := exp #\nexps := exp # &quot;,&quot;\nexps := exp # &quot;,&quot; exps" as nl8kr71
nl8kr71 --> phuui5p: #34;#91;#34;
nl8kr71 --> n2ca4b5: #34;#44;#34;
nl8kr71 --> p2ijmdp: #97;#115;
nl8kr71 --> p40vcnx: #34;#40;#34;
nl8kr71 --> p56cmmg: #34;#63;#34;
nl8kr71 --> pnd8ckt: #34;#46;#34;
nl8kr71 --> ptuemcj: #34;#33;#61;#34;
nl8kr71 --> p8v4w4f: #34;#38;#38;#34;
state "array := &quot;[&quot; exps # &quot;]&quot;" as pb3oft9
pb3oft9 --> pb47jyl: #34;#93;#34;
state "const_stmt := const identifier # &quot;=&quot; exp_stmt" as p712di1
p712di1 --> nngw9ez: #34;#61;#34;
state "array := # &quot;[&quot; &quot;]&quot;\narray := # &quot;[&quot; exps &quot;]&quot;\nexp := # &quot;!&quot; exp\nexp := # &quot;(&quot; &quot;{&quot; identifier &quot;}&quot; &quot;)&quot; &quot;=>&quot; &quot;{&quot; &quot;}&quot;\nexp := # &quot;(&quot; &quot;{&quot; identifier &quot;}&quot; &quot;)&quot; &quot;=>&quot; &quot;{&quot; __0 &quot;}&quot;\nexp := # &quot;(&quot; exp &quot;)&quot;\nexp := # &quot;...&quot; exp\nexp := # array\nexp := # exp &quot;!=&quot; exp\nexp := # exp &quot;&&&quot; exp\nexp := # exp &quot;(&quot; &quot;)&quot;\nexp := # exp &quot;(&quot; exps &quot;)&quot;\nexp := # exp &quot;.&quot; identifier\nexp := # exp &quot;?&quot; &quot;.&quot; identifier\nexp := # exp &quot;[&quot; exp &quot;]&quot;\nexp := # exp as type_name\nexp := # false\nexp := # identifier\nexp := # new identifier\nexp := # null\nexp := # object\nexp := # regex\nexp := # string\nexp := # true\nexp := # undefined\nexp := exp &quot;[&quot; # exp &quot;]&quot;\nobject := # &quot;{&quot; &quot;}&quot;\nobject := # &quot;{&quot; object_entry &quot;}&quot;\nobject := # &quot;{&quot; object_entry __1 &quot;}&quot;" as phuui5p
phuui5p --> npreqca: #105;#100;#101;#110;#116;#105;#102;#105;#101;#114;
phuui5p --> n414vr7: #34;#91;#34;
phuui5p --> p6xnsqb: #101;#120;#112;
phuui5p --> nxbgw36: #115;#116;#114;#105;#110;#103;
phuui5p --> nduxh80: #114;#101;#103;#101;#120;
phuui5p --> p9vc8y3: #116;#114;#117;#101;
phuui5p --> plagb58: #102;#97;#108;#115;#101;
phuui5p --> p9itirg: #111;#98;#106;#101;#99;#116;
phuui5p --> pr2c7c2: #97;#114;#114;#97;#121;
phuui5p --> p72kao4: #110;#117;#108;#108;
phuui5p --> n28xhnr: #117;#110;#100;#101;#102;#105;#110;#101;#100;
phuui5p --> n62dptj: #34;#40;#34;
phuui5p --> p7di4vj: #34;#123;#34;
phuui5p --> nfi3tvk: #110;#101;#119;
phuui5p --> p4p6aod: #34;#33;#34;
phuui5p --> nrnrome: #34;#46;#46;#46;#34;
state "exp := exp as # type_name\ntype_name := # const\ntype_name := # identifier\ntype_name := # readonly identifier &quot;[&quot; &quot;]&quot;" as p2ijmdp
p2ijmdp --> piec8l5: #105;#100;#101;#110;#116;#105;#102;#105;#101;#114;
p2ijmdp --> nha70c9: #114;#101;#97;#100;#111;#110;#108;#121;
p2ijmdp --> n1tp56v: #99;#111;#110;#115;#116;
p2ijmdp --> pvx66n6: #116;#121;#112;#101;#95;#110;#97;#109;#101;
state "array := # &quot;[&quot; &quot;]&quot;\narray := # &quot;[&quot; exps &quot;]&quot;\nexp := # &quot;!&quot; exp\nexp := # &quot;(&quot; &quot;{&quot; identifier &quot;}&quot; &quot;)&quot; &quot;=>&quot; &quot;{&quot; &quot;}&quot;\nexp := # &quot;(&quot; &quot;{&quot; identifier &quot;}&quot; &quot;)&quot; &quot;=>&quot; &quot;{&quot; __0 &quot;}&quot;\nexp := # &quot;(&quot; exp &quot;)&quot;\nexp := # &quot;...&quot; exp\nexp := # array\nexp := # exp &quot;!=&quot; exp\nexp := # exp &quot;&&&quot; exp\nexp := # exp &quot;(&quot; &quot;)&quot;\nexp := # exp &quot;(&quot; exps &quot;)&quot;\nexp := # exp &quot;.&quot; identifier\nexp := # exp &quot;?&quot; &quot;.&quot; identifier\nexp := # exp &quot;[&quot; exp &quot;]&quot;\nexp := # exp as type_name\nexp := # false\nexp := # identifier\nexp := # new identifier\nexp := # null\nexp := # object\nexp := # regex\nexp := # string\nexp := # true\nexp := # undefined\nexp := exp &quot;(&quot; # &quot;)&quot;\nexp := exp &quot;(&quot; # exps &quot;)&quot;\nexps := # exp\nexps := # exp &quot;,&quot;\nexps := # exp &quot;,&quot; exps\nobject := # &quot;{&quot; &quot;}&quot;\nobject := # &quot;{&quot; object_entry &quot;}&quot;\nobject := # &quot;{&quot; object_entry __1 &quot;}&quot;" as p40vcnx
p40vcnx --> npreqca: #105;#100;#101;#110;#116;#105;#102;#105;#101;#114;
p40vcnx --> n414vr7: #34;#91;#34;
p40vcnx --> nl8kr71: #101;#120;#112;
p40vcnx --> ndx36x7: #101;#120;#112;#115;
p40vcnx --> nxbgw36: #115;#116;#114;#105;#110;#103;
p40vcnx --> nduxh80: #114;#101;#103;#101;#120;
p40vcnx --> p9vc8y3: #116;#114;#117;#101;
p40vcnx --> plagb58: #102;#97;#108;#115;#101;
p40vcnx --> p9itirg: #111;#98;#106;#101;#99;#116;
p40vcnx --> pr2c7c2: #97;#114;#114;#97;#121;
p40vcnx --> p72kao4: #110;#117;#108;#108;
p40vcnx --> n28xhnr: #117;#110;#100;#101;#102;#105;#110;#101;#100;
p40vcnx --> n62dptj: #34;#40;#34;
p40vcnx --> pclsm9p: #34;#41;#34;
p40vcnx --> p7di4vj: #34;#123;#34;
p40vcnx --> nfi3tvk: #110;#101;#119;
p40vcnx --> p4p6aod: #34;#33;#34;
p40vcnx --> nrnrome: #34;#46;#46;#46;#34;
state "exp := exp &quot;?&quot; # &quot;.&quot; identifier" as p56cmmg
p56cmmg --> p6jvh54: #34;#46;#34;
state "exp := exp &quot;.&quot; # identifier" as pnd8ckt
pnd8ckt --> n5v19yl: #105;#100;#101;#110;#116;#105;#102;#105;#101;#114;
state "array := # &quot;[&quot; &quot;]&quot;\narray := # &quot;[&quot; exps &quot;]&quot;\nexp := # &quot;!&quot; exp\nexp := # &quot;(&quot; &quot;{&quot; identifier &quot;}&quot; &quot;)&quot; &quot;=>&quot; &quot;{&quot; &quot;}&quot;\nexp := # &quot;(&quot; &quot;{&quot; identifier &quot;}&quot; &quot;)&quot; &quot;=>&quot; &quot;{&quot; __0 &quot;}&quot;\nexp := # &quot;(&quot; exp &quot;)&quot;\nexp := # &quot;...&quot; exp\nexp := # array\nexp := # exp &quot;!=&quot; exp\nexp := # exp &quot;&&&quot; exp\nexp := # exp &quot;(&quot; &quot;)&quot;\nexp := # exp &quot;(&quot; exps &quot;)&quot;\nexp := # exp &quot;.&quot; identifier\nexp := # exp &quot;?&quot; &quot;.&quot; identifier\nexp := # exp &quot;[&quot; exp &quot;]&quot;\nexp := # exp as type_name\nexp := # false\nexp := # identifier\nexp := # new identifier\nexp := # null\nexp := # object\nexp := # regex\nexp := # string\nexp := # true\nexp := # undefined\nexp := exp &quot;!=&quot; # exp\nobject := # &quot;{&quot; &quot;}&quot;\nobject := # &quot;{&quot; object_entry &quot;}&quot;\nobject := # &quot;{&quot; object_entry __1 &quot;}&quot;" as ptuemcj
ptuemcj --> npreqca: #105;#100;#101;#110;#116;#105;#102;#105;#101;#114;
ptuemcj --> n414vr7: #34;#91;#34;
ptuemcj --> ncb8tb3: #101;#120;#112;
ptuemcj --> nxbgw36: #115;#116;#114;#105;#110;#103;
ptuemcj --> nduxh80: #114;#101;#103;#101;#120;
ptuemcj --> p9vc8y3: #116;#114;#117;#101;
ptuemcj --> plagb58: #102;#97;#108;#115;#101;
ptuemcj --> p9itirg: #111;#98;#106;#101;#99;#116;
ptuemcj --> pr2c7c2: #97;#114;#114;#97;#121;
ptuemcj --> p72kao4: #110;#117;#108;#108;
ptuemcj --> n28xhnr: #117;#110;#100;#101;#102;#105;#110;#101;#100;
ptuemcj --> n62dptj: #34;#40;#34;
ptuemcj --> p7di4vj: #34;#123;#34;
ptuemcj --> nfi3tvk: #110;#101;#119;
ptuemcj --> p4p6aod: #34;#33;#34;
ptuemcj --> nrnrome: #34;#46;#46;#46;#34;
state "array := # &quot;[&quot; &quot;]&quot;\narray := # &quot;[&quot; exps &quot;]&quot;\nexp := # &quot;!&quot; exp\nexp := # &quot;(&quot; &quot;{&quot; identifier &quot;}&quot; &quot;)&quot; &quot;=>&quot; &quot;{&quot; &quot;}&quot;\nexp := # &quot;(&quot; &quot;{&quot; identifier &quot;}&quot; &quot;)&quot; &quot;=>&quot; &quot;{&quot; __0 &quot;}&quot;\nexp := # &quot;(&quot; exp &quot;)&quot;\nexp := # &quot;...&quot; exp\nexp := # array\nexp := # exp &quot;!=&quot; exp\nexp := # exp &quot;&&&quot; exp\nexp := # exp &quot;(&quot; &quot;)&quot;\nexp := # exp &quot;(&quot; exps &quot;)&quot;\nexp := # exp &quot;.&quot; identifier\nexp := # exp &quot;?&quot; &quot;.&quot; identifier\nexp := # exp &quot;[&quot; exp &quot;]&quot;\nexp := # exp as type_name\nexp := # false\nexp := # identifier\nexp := # new identifier\nexp := # null\nexp := # object\nexp := # regex\nexp := # string\nexp := # true\nexp := # undefined\nexp := exp &quot;&&&quot; # exp\nobject := # &quot;{&quot; &quot;}&quot;\nobject := # &quot;{&quot; object_entry &quot;}&quot;\nobject := # &quot;{&quot; object_entry __1 &quot;}&quot;" as p8v4w4f
p8v4w4f --> npreqca: #105;#100;#101;#110;#116;#105;#102;#105;#101;#114;
p8v4w4f --> n414vr7: #34;#91;#34;
p8v4w4f --> n35nntv: #101;#120;#112;
p8v4w4f --> nxbgw36: #115;#116;#114;#105;#110;#103;
p8v4w4f --> nduxh80: #114;#101;#103;#101;#120;
p8v4w4f --> p9vc8y3: #116;#114;#117;#101;
p8v4w4f --> plagb58: #102;#97;#108;#115;#101;
p8v4w4f --> p9itirg: #111;#98;#106;#101;#99;#116;
p8v4w4f --> pr2c7c2: #97;#114;#114;#97;#121;
p8v4w4f --> p72kao4: #110;#117;#108;#108;
p8v4w4f --> n28xhnr: #117;#110;#100;#101;#102;#105;#110;#101;#100;
p8v4w4f --> n62dptj: #34;#40;#34;
p8v4w4f --> p7di4vj: #34;#123;#34;
p8v4w4f --> nfi3tvk: #110;#101;#119;
p8v4w4f --> p4p6aod: #34;#33;#34;
p8v4w4f --> nrnrome: #34;#46;#46;#46;#34;
state "exp_stmt := exp &quot;;&quot; #" as nov9r0e
state "exp := &quot;(&quot; exp # &quot;)&quot;\nexp := exp # &quot;!=&quot; exp\nexp := exp # &quot;&&&quot; exp\nexp := exp # &quot;(&quot; &quot;)&quot;\nexp := exp # &quot;(&quot; exps &quot;)&quot;\nexp := exp # &quot;.&quot; identifier\nexp := exp # &quot;?&quot; &quot;.&quot; identifier\nexp := exp # &quot;[&quot; exp &quot;]&quot;\nexp := exp # as type_name" as nb2vnib
nb2vnib --> phuui5p: #34;#91;#34;
nb2vnib --> p2ijmdp: #97;#115;
nb2vnib --> p40vcnx: #34;#40;#34;
nb2vnib --> pq6mn99: #34;#41;#34;
nb2vnib --> p56cmmg: #34;#63;#34;
nb2vnib --> pnd8ckt: #34;#46;#34;
nb2vnib --> ptuemcj: #34;#33;#61;#34;
nb2vnib --> p8v4w4f: #34;#38;#38;#34;
state "exp := &quot;(&quot; &quot;{&quot; # identifier &quot;}&quot; &quot;)&quot; &quot;=>&quot; &quot;{&quot; &quot;}&quot;\nexp := &quot;(&quot; &quot;{&quot; # identifier &quot;}&quot; &quot;)&quot; &quot;=>&quot; &quot;{&quot; __0 &quot;}&quot;\nobject := &quot;{&quot; # &quot;}&quot;\nobject := &quot;{&quot; # object_entry &quot;}&quot;\nobject := &quot;{&quot; # object_entry __1 &quot;}&quot;\nobject_entry := # identifier\nobject_entry := # identifier &quot;:&quot; exp" as nflr6e9
nflr6e9 --> nucz7gf: #105;#100;#101;#110;#116;#105;#102;#105;#101;#114;
nflr6e9 --> pnt6gt3: #34;#125;#34;
nflr6e9 --> n81mpq6: #111;#98;#106;#101;#99;#116;#95;#101;#110;#116;#114;#121;
state "object_entry := identifier #\nobject_entry := identifier # &quot;:&quot; exp" as pherssx
pherssx --> pj9j7og: #34;#58;#34;
state "object := &quot;{&quot; &quot;}&quot; #" as pnt6gt3
state "__1 := # &quot;,&quot; object_entry\n__1 := # &quot;,&quot; object_entry __1\nobject := &quot;{&quot; object_entry # &quot;}&quot;\nobject := &quot;{&quot; object_entry # __1 &quot;}&quot;" as n81mpq6
n81mpq6 --> pex3blk: #34;#44;#34;
n81mpq6 --> ph9p9kf: #34;#125;#34;
n81mpq6 --> nmww6jk: #95;#95;#49;
state "exp := new identifier #" as pqaqlk6
state "exp := &quot;!&quot; exp #\nexp := exp # &quot;!=&quot; exp\nexp := exp # &quot;&&&quot; exp\nexp := exp # &quot;(&quot; &quot;)&quot;\nexp := exp # &quot;(&quot; exps &quot;)&quot;\nexp := exp # &quot;.&quot; identifier\nexp := exp # &quot;?&quot; &quot;.&quot; identifier\nexp := exp # &quot;[&quot; exp &quot;]&quot;\nexp := exp # as type_name" as pil9l6x
pil9l6x --> phuui5p: #34;#91;#34;
pil9l6x --> p2ijmdp: #97;#115;
pil9l6x --> p40vcnx: #34;#40;#34;
pil9l6x --> p56cmmg: #34;#63;#34;
pil9l6x --> pnd8ckt: #34;#46;#34;
pil9l6x --> ptuemcj: #34;#33;#61;#34;
pil9l6x --> p8v4w4f: #34;#38;#38;#34;
state "exp := &quot;...&quot; exp #\nexp := exp # &quot;!=&quot; exp\nexp := exp # &quot;&&&quot; exp\nexp := exp # &quot;(&quot; &quot;)&quot;\nexp := exp # &quot;(&quot; exps &quot;)&quot;\nexp := exp # &quot;.&quot; identifier\nexp := exp # &quot;?&quot; &quot;.&quot; identifier\nexp := exp # &quot;[&quot; exp &quot;]&quot;\nexp := exp # as type_name" as nrdcy04
nrdcy04 --> phuui5p: #34;#91;#34;
nrdcy04 --> p2ijmdp: #97;#115;
nrdcy04 --> p40vcnx: #34;#40;#34;
nrdcy04 --> p56cmmg: #34;#63;#34;
nrdcy04 --> pnd8ckt: #34;#46;#34;
nrdcy04 --> ptuemcj: #34;#33;#61;#34;
nrdcy04 --> p8v4w4f: #34;#38;#38;#34;
state "export_stmt := export const_stmt #" as p44wlc3
state "import_stmt := import &quot;{&quot; # identifier &quot;}&quot; from string &quot;;&quot;\nimport_stmt := import &quot;{&quot; # identifier __2 &quot;}&quot; from string &quot;;&quot;" as nm0fwzo
nm0fwzo --> npef1po: #105;#100;#101;#110;#116;#105;#102;#105;#101;#114;
state "import_stmt := import &quot;*&quot; # as identifier from string &quot;;&quot;" as poj9djc
poj9djc --> n89vgim: #97;#115;
state "array := # &quot;[&quot; &quot;]&quot;\narray := # &quot;[&quot; exps &quot;]&quot;\nexp := # &quot;!&quot; exp\nexp := # &quot;(&quot; &quot;{&quot; identifier &quot;}&quot; &quot;)&quot; &quot;=>&quot; &quot;{&quot; &quot;}&quot;\nexp := # &quot;(&quot; &quot;{&quot; identifier &quot;}&quot; &quot;)&quot; &quot;=>&quot; &quot;{&quot; __0 &quot;}&quot;\nexp := # &quot;(&quot; exp &quot;)&quot;\nexp := # &quot;...&quot; exp\nexp := # array\nexp := # exp &quot;!=&quot; exp\nexp := # exp &quot;&&&quot; exp\nexp := # exp &quot;(&quot; &quot;)&quot;\nexp := # exp &quot;(&quot; exps &quot;)&quot;\nexp := # exp &quot;.&quot; identifier\nexp := # exp &quot;?&quot; &quot;.&quot; identifier\nexp := # exp &quot;[&quot; exp &quot;]&quot;\nexp := # exp as type_name\nexp := # false\nexp := # identifier\nexp := # new identifier\nexp := # null\nexp := # object\nexp := # regex\nexp := # string\nexp := # true\nexp := # undefined\nexps := # exp\nexps := # exp &quot;,&quot;\nexps := # exp &quot;,&quot; exps\nexps := exp &quot;,&quot; #\nexps := exp &quot;,&quot; # exps\nobject := # &quot;{&quot; &quot;}&quot;\nobject := # &quot;{&quot; object_entry &quot;}&quot;\nobject := # &quot;{&quot; object_entry __1 &quot;}&quot;" as n2ca4b5
n2ca4b5 --> npreqca: #105;#100;#101;#110;#116;#105;#102;#105;#101;#114;
n2ca4b5 --> n414vr7: #34;#91;#34;
n2ca4b5 --> nl8kr71: #101;#120;#112;
n2ca4b5 --> pwtmszb: #101;#120;#112;#115;
n2ca4b5 --> nxbgw36: #115;#116;#114;#105;#110;#103;
n2ca4b5 --> nduxh80: #114;#101;#103;#101;#120;
n2ca4b5 --> p9vc8y3: #116;#114;#117;#101;
n2ca4b5 --> plagb58: #102;#97;#108;#115;#101;
n2ca4b5 --> p9itirg: #111;#98;#106;#101;#99;#116;
n2ca4b5 --> pr2c7c2: #97;#114;#114;#97;#121;
n2ca4b5 --> p72kao4: #110;#117;#108;#108;
n2ca4b5 --> n28xhnr: #117;#110;#100;#101;#102;#105;#110;#101;#100;
n2ca4b5 --> n62dptj: #34;#40;#34;
n2ca4b5 --> p7di4vj: #34;#123;#34;
n2ca4b5 --> nfi3tvk: #110;#101;#119;
n2ca4b5 --> p4p6aod: #34;#33;#34;
n2ca4b5 --> nrnrome: #34;#46;#46;#46;#34;
state "array := &quot;[&quot; exps &quot;]&quot; #" as pb47jyl
state "array := # &quot;[&quot; &quot;]&quot;\narray := # &quot;[&quot; exps &quot;]&quot;\nconst_stmt := const identifier &quot;=&quot; # exp_stmt\nexp := # &quot;!&quot; exp\nexp := # &quot;(&quot; &quot;{&quot; identifier &quot;}&quot; &quot;)&quot; &quot;=>&quot; &quot;{&quot; &quot;}&quot;\nexp := # &quot;(&quot; &quot;{&quot; identifier &quot;}&quot; &quot;)&quot; &quot;=>&quot; &quot;{&quot; __0 &quot;}&quot;\nexp := # &quot;(&quot; exp &quot;)&quot;\nexp := # &quot;...&quot; exp\nexp := # array\nexp := # exp &quot;!=&quot; exp\nexp := # exp &quot;&&&quot; exp\nexp := # exp &quot;(&quot; &quot;)&quot;\nexp := # exp &quot;(&quot; exps &quot;)&quot;\nexp := # exp &quot;.&quot; identifier\nexp := # exp &quot;?&quot; &quot;.&quot; identifier\nexp := # exp &quot;[&quot; exp &quot;]&quot;\nexp := # exp as type_name\nexp := # false\nexp := # identifier\nexp := # new identifier\nexp := # null\nexp := # object\nexp := # regex\nexp := # string\nexp := # true\nexp := # undefined\nexp_stmt := # exp &quot;;&quot;\nobject := # &quot;{&quot; &quot;}&quot;\nobject := # &quot;{&quot; object_entry &quot;}&quot;\nobject := # &quot;{&quot; object_entry __1 &quot;}&quot;" as nngw9ez
nngw9ez --> npreqca: #105;#100;#101;#110;#116;#105;#102;#105;#101;#114;
nngw9ez --> n414vr7: #34;#91;#34;
nngw9ez --> ptu34g2: #101;#120;#112;
nngw9ez --> nxbgw36: #115;#116;#114;#105;#110;#103;
nngw9ez --> nduxh80: #114;#101;#103;#101;#120;
nngw9ez --> p9vc8y3: #116;#114;#117;#101;
nngw9ez --> plagb58: #102;#97;#108;#115;#101;
nngw9ez --> p9itirg: #111;#98;#106;#101;#99;#116;
nngw9ez --> pr2c7c2: #97;#114;#114;#97;#121;
nngw9ez --> p72kao4: #110;#117;#108;#108;
nngw9ez --> n28xhnr: #117;#110;#100;#101;#102;#105;#110;#101;#100;
nngw9ez --> n62dptj: #34;#40;#34;
nngw9ez --> p7di4vj: #34;#123;#34;
nngw9ez --> nfi3tvk: #110;#101;#119;
nngw9ez --> p4p6aod: #34;#33;#34;
nngw9ez --> nrnrome: #34;#46;#46;#46;#34;
nngw9ez --> nsyrhkx: #101;#120;#112;#95;#115;#116;#109;#116;
state "exp := exp &quot;[&quot; exp # &quot;]&quot;\nexp := exp # &quot;!=&quot; exp\nexp := exp # &quot;&&&quot; exp\nexp := exp # &quot;(&quot; &quot;)&quot;\nexp := exp # &quot;(&quot; exps &quot;)&quot;\nexp := exp # &quot;.&quot; identifier\nexp := exp # &quot;?&quot; &quot;.&quot; identifier\nexp := exp # &quot;[&quot; exp &quot;]&quot;\nexp := exp # as type_name" as p6xnsqb
p6xnsqb --> phuui5p: #34;#91;#34;
p6xnsqb --> p511xv7: #34;#93;#34;
p6xnsqb --> p2ijmdp: #97;#115;
p6xnsqb --> p40vcnx: #34;#40;#34;
p6xnsqb --> p56cmmg: #34;#63;#34;
p6xnsqb --> pnd8ckt: #34;#46;#34;
p6xnsqb --> ptuemcj: #34;#33;#61;#34;
p6xnsqb --> p8v4w4f: #34;#38;#38;#34;
state "type_name := identifier #" as piec8l5
state "type_name := readonly # identifier &quot;[&quot; &quot;]&quot;" as nha70c9
nha70c9 --> ny3707n: #105;#100;#101;#110;#116;#105;#102;#105;#101;#114;
state "type_name := const #" as n1tp56v
state "exp := exp as type_name #" as pvx66n6
state "exp := exp &quot;(&quot; exps # &quot;)&quot;" as ndx36x7
ndx36x7 --> ndxh8uj: #34;#41;#34;
state "exp := exp &quot;(&quot; &quot;)&quot; #" as pclsm9p
state "exp := exp &quot;?&quot; &quot;.&quot; # identifier" as p6jvh54
p6jvh54 --> nmoe5ea: #105;#100;#101;#110;#116;#105;#102;#105;#101;#114;
state "exp := exp &quot;.&quot; identifier #" as n5v19yl
state "exp := exp &quot;!=&quot; exp #\nexp := exp # &quot;!=&quot; exp\nexp := exp # &quot;&&&quot; exp\nexp := exp # &quot;(&quot; &quot;)&quot;\nexp := exp # &quot;(&quot; exps &quot;)&quot;\nexp := exp # &quot;.&quot; identifier\nexp := exp # &quot;?&quot; &quot;.&quot; identifier\nexp := exp # &quot;[&quot; exp &quot;]&quot;\nexp := exp # as type_name" as ncb8tb3
ncb8tb3 --> phuui5p: #34;#91;#34;
ncb8tb3 --> p2ijmdp: #97;#115;
ncb8tb3 --> p40vcnx: #34;#40;#34;
ncb8tb3 --> p56cmmg: #34;#63;#34;
ncb8tb3 --> pnd8ckt: #34;#46;#34;
ncb8tb3 --> ptuemcj: #34;#33;#61;#34;
ncb8tb3 --> p8v4w4f: #34;#38;#38;#34;
state "exp := exp &quot;&&&quot; exp #\nexp := exp # &quot;!=&quot; exp\nexp := exp # &quot;&&&quot; exp\nexp := exp # &quot;(&quot; &quot;)&quot;\nexp := exp # &quot;(&quot; exps &quot;)&quot;\nexp := exp # &quot;.&quot; identifier\nexp := exp # &quot;?&quot; &quot;.&quot; identifier\nexp := exp # &quot;[&quot; exp &quot;]&quot;\nexp := exp # as type_name" as n35nntv
n35nntv --> phuui5p: #34;#91;#34;
n35nntv --> p2ijmdp: #97;#115;
n35nntv --> p40vcnx: #34;#40;#34;
n35nntv --> p56cmmg: #34;#63;#34;
n35nntv --> pnd8ckt: #34;#46;#34;
n35nntv --> ptuemcj: #34;#33;#61;#34;
n35nntv --> p8v4w4f: #34;#38;#38;#34;
state "exp := &quot;(&quot; exp &quot;)&quot; #" as pq6mn99
state "exp := &quot;(&quot; &quot;{&quot; identifier # &quot;}&quot; &quot;)&quot; &quot;=>&quot; &quot;{&quot; &quot;}&quot;\nexp := &quot;(&quot; &quot;{&quot; identifier # &quot;}&quot; &quot;)&quot; &quot;=>&quot; &quot;{&quot; __0 &quot;}&quot;\nobject_entry := identifier #\nobject_entry := identifier # &quot;:&quot; exp" as nucz7gf
nucz7gf --> n30m2ti: #34;#125;#34;
nucz7gf --> pj9j7og: #34;#58;#34;
state "array := # &quot;[&quot; &quot;]&quot;\narray := # &quot;[&quot; exps &quot;]&quot;\nexp := # &quot;!&quot; exp\nexp := # &quot;(&quot; &quot;{&quot; identifier &quot;}&quot; &quot;)&quot; &quot;=>&quot; &quot;{&quot; &quot;}&quot;\nexp := # &quot;(&quot; &quot;{&quot; identifier &quot;}&quot; &quot;)&quot; &quot;=>&quot; &quot;{&quot; __0 &quot;}&quot;\nexp := # &quot;(&quot; exp &quot;)&quot;\nexp := # &quot;...&quot; exp\nexp := # array\nexp := # exp &quot;!=&quot; exp\nexp := # exp &quot;&&&quot; exp\nexp := # exp &quot;(&quot; &quot;)&quot;\nexp := # exp &quot;(&quot; exps &quot;)&quot;\nexp := # exp &quot;.&quot; identifier\nexp := # exp &quot;?&quot; &quot;.&quot; identifier\nexp := # exp &quot;[&quot; exp &quot;]&quot;\nexp := # exp as type_name\nexp := # false\nexp := # identifier\nexp := # new identifier\nexp := # null\nexp := # object\nexp := # regex\nexp := # string\nexp := # true\nexp := # undefined\nobject := # &quot;{&quot; &quot;}&quot;\nobject := # &quot;{&quot; object_entry &quot;}&quot;\nobject := # &quot;{&quot; object_entry __1 &quot;}&quot;\nobject_entry := identifier &quot;:&quot; # exp" as pj9j7og
pj9j7og --> npreqca: #105;#100;#101;#110;#116;#105;#102;#105;#101;#114;
pj9j7og --> n414vr7: #34;#91;#34;
pj9j7og --> nc0a4gu: #101;#120;#112;
pj9j7og --> nxbgw36: #115;#116;#114;#105;#110;#103;
pj9j7og --> nduxh80: #114;#101;#103;#101;#120;
pj9j7og --> p9vc8y3: #116;#114;#117;#101;
pj9j7og --> plagb58: #102;#97;#108;#115;#101;
pj9j7og --> p9itirg: #111;#98;#106;#101;#99;#116;
pj9j7og --> pr2c7c2: #97;#114;#114;#97;#121;
pj9j7og --> p72kao4: #110;#117;#108;#108;
pj9j7og --> n28xhnr: #117;#110;#100;#101;#102;#105;#110;#101;#100;
pj9j7og --> n62dptj: #34;#40;#34;
pj9j7og --> p7di4vj: #34;#123;#34;
pj9j7og --> nfi3tvk: #110;#101;#119;
pj9j7og --> p4p6aod: #34;#33;#34;
pj9j7og --> nrnrome: #34;#46;#46;#46;#34;
state "__1 := &quot;,&quot; # object_entry\n__1 := &quot;,&quot; # object_entry __1\nobject_entry := # identifier\nobject_entry := # identifier &quot;:&quot; exp" as pex3blk
pex3blk --> pherssx: #105;#100;#101;#110;#116;#105;#102;#105;#101;#114;
pex3blk --> ne3hnvg: #111;#98;#106;#101;#99;#116;#95;#101;#110;#116;#114;#121;
state "object := &quot;{&quot; object_entry &quot;}&quot; #" as ph9p9kf
state "object := &quot;{&quot; object_entry __1 # &quot;}&quot;" as nmww6jk
nmww6jk --> nmvsnkw: #34;#125;#34;
state "__2 := # &quot;,&quot; identifier\n__2 := # &quot;,&quot; identifier __2\nimport_stmt := import &quot;{&quot; identifier # &quot;}&quot; from string &quot;;&quot;\nimport_stmt := import &quot;{&quot; identifier # __2 &quot;}&quot; from string &quot;;&quot;" as npef1po
npef1po --> n1ue0f2: #34;#44;#34;
npef1po --> ngji16: #34;#125;#34;
npef1po --> pc9ll2g: #95;#95;#50;
state "import_stmt := import &quot;*&quot; as # identifier from string &quot;;&quot;" as n89vgim
n89vgim --> nzap96g: #105;#100;#101;#110;#116;#105;#102;#105;#101;#114;
state "exps := exp &quot;,&quot; exps #" as pwtmszb
state "const_stmt := const identifier &quot;=&quot; exp_stmt #" as nsyrhkx
state "exp := exp &quot;[&quot; exp &quot;]&quot; #" as p511xv7
state "type_name := readonly identifier # &quot;[&quot; &quot;]&quot;" as ny3707n
ny3707n --> pyq1t2l: #34;#91;#34;
state "exp := exp &quot;(&quot; exps &quot;)&quot; #" as ndxh8uj
state "exp := exp &quot;?&quot; &quot;.&quot; identifier #" as nmoe5ea
state "exp := &quot;(&quot; &quot;{&quot; identifier &quot;}&quot; # &quot;)&quot; &quot;=>&quot; &quot;{&quot; &quot;}&quot;\nexp := &quot;(&quot; &quot;{&quot; identifier &quot;}&quot; # &quot;)&quot; &quot;=>&quot; &quot;{&quot; __0 &quot;}&quot;" as n30m2ti
n30m2ti --> n89ze86: #34;#41;#34;
state "exp := exp # &quot;!=&quot; exp\nexp := exp # &quot;&&&quot; exp\nexp := exp # &quot;(&quot; &quot;)&quot;\nexp := exp # &quot;(&quot; exps &quot;)&quot;\nexp := exp # &quot;.&quot; identifier\nexp := exp # &quot;?&quot; &quot;.&quot; identifier\nexp := exp # &quot;[&quot; exp &quot;]&quot;\nexp := exp # as type_name\nobject_entry := identifier &quot;:&quot; exp #" as nc0a4gu
nc0a4gu --> phuui5p: #34;#91;#34;
nc0a4gu --> p2ijmdp: #97;#115;
nc0a4gu --> p40vcnx: #34;#40;#34;
nc0a4gu --> p56cmmg: #34;#63;#34;
nc0a4gu --> pnd8ckt: #34;#46;#34;
nc0a4gu --> ptuemcj: #34;#33;#61;#34;
nc0a4gu --> p8v4w4f: #34;#38;#38;#34;
state "__1 := &quot;,&quot; object_entry #\n__1 := &quot;,&quot; object_entry # __1\n__1 := # &quot;,&quot; object_entry\n__1 := # &quot;,&quot; object_entry __1" as ne3hnvg
ne3hnvg --> pex3blk: #34;#44;#34;
ne3hnvg --> plhq1r0: #95;#95;#49;
state "object := &quot;{&quot; object_entry __1 &quot;}&quot; #" as nmvsnkw
state "__2 := &quot;,&quot; # identifier\n__2 := &quot;,&quot; # identifier __2" as n1ue0f2
n1ue0f2 --> nqaa7ui: #105;#100;#101;#110;#116;#105;#102;#105;#101;#114;
state "import_stmt := import &quot;{&quot; identifier &quot;}&quot; # from string &quot;;&quot;" as ngji16
ngji16 --> pjqf0k0: #102;#114;#111;#109;
state "import_stmt := import &quot;{&quot; identifier __2 # &quot;}&quot; from string &quot;;&quot;" as pc9ll2g
pc9ll2g --> pci7ico: #34;#125;#34;
state "import_stmt := import &quot;*&quot; as identifier # from string &quot;;&quot;" as nzap96g
nzap96g --> nf3qqla: #102;#114;#111;#109;
state "type_name := readonly identifier &quot;[&quot; # &quot;]&quot;" as pyq1t2l
pyq1t2l --> pyqkx7x: #34;#93;#34;
state "exp := &quot;(&quot; &quot;{&quot; identifier &quot;}&quot; &quot;)&quot; # &quot;=>&quot; &quot;{&quot; &quot;}&quot;\nexp := &quot;(&quot; &quot;{&quot; identifier &quot;}&quot; &quot;)&quot; # &quot;=>&quot; &quot;{&quot; __0 &quot;}&quot;" as n89ze86
n89ze86 --> pksjjei: #34;#61;#62;#34;
state "__1 := &quot;,&quot; object_entry __1 #" as plhq1r0
state "__2 := &quot;,&quot; identifier #\n__2 := &quot;,&quot; identifier # __2\n__2 := # &quot;,&quot; identifier\n__2 := # &quot;,&quot; identifier __2" as nqaa7ui
nqaa7ui --> n1ue0f2: #34;#44;#34;
nqaa7ui --> nkq3ecr: #95;#95;#50;
state "import_stmt := import &quot;{&quot; identifier &quot;}&quot; from # string &quot;;&quot;" as pjqf0k0
pjqf0k0 --> npg2szu: #115;#116;#114;#105;#110;#103;
state "import_stmt := import &quot;{&quot; identifier __2 &quot;}&quot; # from string &quot;;&quot;" as pci7ico
pci7ico --> pwp60xu: #102;#114;#111;#109;
state "import_stmt := import &quot;*&quot; as identifier from # string &quot;;&quot;" as nf3qqla
nf3qqla --> paqvhu0: #115;#116;#114;#105;#110;#103;
state "type_name := readonly identifier &quot;[&quot; &quot;]&quot; #" as pyqkx7x
state "exp := &quot;(&quot; &quot;{&quot; identifier &quot;}&quot; &quot;)&quot; &quot;=>&quot; # &quot;{&quot; &quot;}&quot;\nexp := &quot;(&quot; &quot;{&quot; identifier &quot;}&quot; &quot;)&quot; &quot;=>&quot; # &quot;{&quot; __0 &quot;}&quot;" as pksjjei
pksjjei --> pli82px: #34;#123;#34;
state "__2 := &quot;,&quot; identifier __2 #" as nkq3ecr
state "import_stmt := import &quot;{&quot; identifier &quot;}&quot; from string # &quot;;&quot;" as npg2szu
npg2szu --> npg5dl6: #34;#59;#34;
state "import_stmt := import &quot;{&quot; identifier __2 &quot;}&quot; from # string &quot;;&quot;" as pwp60xu
pwp60xu --> nchbsm0: #115;#116;#114;#105;#110;#103;
state "import_stmt := import &quot;*&quot; as identifier from string # &quot;;&quot;" as paqvhu0
paqvhu0 --> paqsx8o: #34;#59;#34;
state "__0 := # stmt\n__0 := # stmt __0\narray := # &quot;[&quot; &quot;]&quot;\narray := # &quot;[&quot; exps &quot;]&quot;\nconst_stmt := # const identifier &quot;=&quot; exp_stmt\nexp := &quot;(&quot; &quot;{&quot; identifier &quot;}&quot; &quot;)&quot; &quot;=>&quot; &quot;{&quot; # &quot;}&quot;\nexp := &quot;(&quot; &quot;{&quot; identifier &quot;}&quot; &quot;)&quot; &quot;=>&quot; &quot;{&quot; # __0 &quot;}&quot;\nexp := # &quot;!&quot; exp\nexp := # &quot;(&quot; &quot;{&quot; identifier &quot;}&quot; &quot;)&quot; &quot;=>&quot; &quot;{&quot; &quot;}&quot;\nexp := # &quot;(&quot; &quot;{&quot; identifier &quot;}&quot; &quot;)&quot; &quot;=>&quot; &quot;{&quot; __0 &quot;}&quot;\nexp := # &quot;(&quot; exp &quot;)&quot;\nexp := # &quot;...&quot; exp\nexp := # array\nexp := # exp &quot;!=&quot; exp\nexp := # exp &quot;&&&quot; exp\nexp := # exp &quot;(&quot; &quot;)&quot;\nexp := # exp &quot;(&quot; exps &quot;)&quot;\nexp := # exp &quot;.&quot; identifier\nexp := # exp &quot;?&quot; &quot;.&quot; identifier\nexp := # exp &quot;[&quot; exp &quot;]&quot;\nexp := # exp as type_name\nexp := # false\nexp := # identifier\nexp := # new identifier\nexp := # null\nexp := # object\nexp := # regex\nexp := # string\nexp := # true\nexp := # undefined\nexp_stmt := # exp &quot;;&quot;\nobject := # &quot;{&quot; &quot;}&quot;\nobject := # &quot;{&quot; object_entry &quot;}&quot;\nobject := # &quot;{&quot; object_entry __1 &quot;}&quot;\nstmt := # const_stmt\nstmt := # exp_stmt" as pli82px
pli82px --> npreqca: #105;#100;#101;#110;#116;#105;#102;#105;#101;#114;
pli82px --> n414vr7: #34;#91;#34;
pli82px --> pia8n9b: #99;#111;#110;#115;#116;
pli82px --> ptu34g2: #101;#120;#112;
pli82px --> nxbgw36: #115;#116;#114;#105;#110;#103;
pli82px --> nduxh80: #114;#101;#103;#101;#120;
pli82px --> p9vc8y3: #116;#114;#117;#101;
pli82px --> plagb58: #102;#97;#108;#115;#101;
pli82px --> p9itirg: #111;#98;#106;#101;#99;#116;
pli82px --> pr2c7c2: #97;#114;#114;#97;#121;
pli82px --> p72kao4: #110;#117;#108;#108;
pli82px --> n28xhnr: #117;#110;#100;#101;#102;#105;#110;#101;#100;
pli82px --> n62dptj: #34;#40;#34;
pli82px --> p7di4vj: #34;#123;#34;
pli82px --> nrdc6y6: #34;#125;#34;
pli82px --> ppm2jia: #95;#95;#48;
pli82px --> nfi3tvk: #110;#101;#119;
pli82px --> p4p6aod: #34;#33;#34;
pli82px --> nrnrome: #34;#46;#46;#46;#34;
pli82px --> p5lobf6: #101;#120;#112;#95;#115;#116;#109;#116;
pli82px --> pjvck24: #99;#111;#110;#115;#116;#95;#115;#116;#109;#116;
pli82px --> n3i5y67: #115;#116;#109;#116;
state "import_stmt := import &quot;{&quot; identifier &quot;}&quot; from string &quot;;&quot; #" as npg5dl6
state "import_stmt := import &quot;{&quot; identifier __2 &quot;}&quot; from string # &quot;;&quot;" as nchbsm0
nchbsm0 --> nched7c: #34;#59;#34;
state "import_stmt := import &quot;*&quot; as identifier from string &quot;;&quot; #" as paqsx8o
state "exp := &quot;(&quot; &quot;{&quot; identifier &quot;}&quot; &quot;)&quot; &quot;=>&quot; &quot;{&quot; &quot;}&quot; #" as nrdc6y6
state "exp := &quot;(&quot; &quot;{&quot; identifier &quot;}&quot; &quot;)&quot; &quot;=>&quot; &quot;{&quot; __0 # &quot;}&quot;" as ppm2jia
ppm2jia --> ppn62gy: #34;#125;#34;
state "stmt := exp_stmt #" as p5lobf6
state "stmt := const_stmt #" as pjvck24
state "__0 := # stmt\n__0 := # stmt __0\n__0 := stmt #\n__0 := stmt # __0\narray := # &quot;[&quot; &quot;]&quot;\narray := # &quot;[&quot; exps &quot;]&quot;\nconst_stmt := # const identifier &quot;=&quot; exp_stmt\nexp := # &quot;!&quot; exp\nexp := # &quot;(&quot; &quot;{&quot; identifier &quot;}&quot; &quot;)&quot; &quot;=>&quot; &quot;{&quot; &quot;}&quot;\nexp := # &quot;(&quot; &quot;{&quot; identifier &quot;}&quot; &quot;)&quot; &quot;=>&quot; &quot;{&quot; __0 &quot;}&quot;\nexp := # &quot;(&quot; exp &quot;)&quot;\nexp := # &quot;...&quot; exp\nexp := # array\nexp := # exp &quot;!=&quot; exp\nexp := # exp &quot;&&&quot; exp\nexp := # exp &quot;(&quot; &quot;)&quot;\nexp := # exp &quot;(&quot; exps &quot;)&quot;\nexp := # exp &quot;.&quot; identifier\nexp := # exp &quot;?&quot; &quot;.&quot; identifier\nexp := # exp &quot;[&quot; exp &quot;]&quot;\nexp := # exp as type_name\nexp := # false\nexp := # identifier\nexp := # new identifier\nexp := # null\nexp := # object\nexp := # regex\nexp := # string\nexp := # true\nexp := # undefined\nexp_stmt := # exp &quot;;&quot;\nobject := # &quot;{&quot; &quot;}&quot;\nobject := # &quot;{&quot; object_entry &quot;}&quot;\nobject := # &quot;{&quot; object_entry __1 &quot;}&quot;\nstmt := # const_stmt\nstmt := # exp_stmt" as n3i5y67
n3i5y67 --> npreqca: #105;#100;#101;#110;#116;#105;#102;#105;#101;#114;
n3i5y67 --> n414vr7: #34;#91;#34;
n3i5y67 --> pia8n9b: #99;#111;#110;#115;#116;
n3i5y67 --> ptu34g2: #101;#120;#112;
n3i5y67 --> nxbgw36: #115;#116;#114;#105;#110;#103;
n3i5y67 --> nduxh80: #114;#101;#103;#101;#120;
n3i5y67 --> p9vc8y3: #116;#114;#117;#101;
n3i5y67 --> plagb58: #102;#97;#108;#115;#101;
n3i5y67 --> p9itirg: #111;#98;#106;#101;#99;#116;
n3i5y67 --> pr2c7c2: #97;#114;#114;#97;#121;
n3i5y67 --> p72kao4: #110;#117;#108;#108;
n3i5y67 --> n28xhnr: #117;#110;#100;#101;#102;#105;#110;#101;#100;
n3i5y67 --> n62dptj: #34;#40;#34;
n3i5y67 --> p7di4vj: #34;#123;#34;
n3i5y67 --> nv4cc7s: #95;#95;#48;
n3i5y67 --> nfi3tvk: #110;#101;#119;
n3i5y67 --> p4p6aod: #34;#33;#34;
n3i5y67 --> nrnrome: #34;#46;#46;#46;#34;
n3i5y67 --> p5lobf6: #101;#120;#112;#95;#115;#116;#109;#116;
n3i5y67 --> pjvck24: #99;#111;#110;#115;#116;#95;#115;#116;#109;#116;
n3i5y67 --> n3i5y67: #115;#116;#109;#116;
state "import_stmt := import &quot;{&quot; identifier __2 &quot;}&quot; from string &quot;;&quot; #" as nched7c
state "exp := &quot;(&quot; &quot;{&quot; identifier &quot;}&quot; &quot;)&quot; &quot;=>&quot; &quot;{&quot; __0 &quot;}&quot; #" as ppn62gy
state "__0 := stmt __0 #" as nv4cc7s